<svg width="361" height="307" viewBox="0 0 361 307" fill="none" xmlns="http://www.w3.org/2000/svg">
<g filter="url(#filter0_i_85_65)">
<path d="M40.8776 278.124C6.83957 249.301 -9.08142 191.931 6.01608 148.011C20.8391 104.091 66.9551 73.6215 118.561 45.0735C170.167 16.251 227.263 -10.3755 272.83 4.99651C318.397 20.094 352.161 77.19 359.023 133.188C365.886 188.912 345.573 243.263 311.26 272.085C276.673 300.908 228.087 304.201 177.579 305.574C127.345 307.221 74.9156 306.946 40.8776 278.124Z" fill="url(#paint0_linear_85_65)" fill-opacity="0.5"/>
</g>
<path d="M6.48894 148.174L6.48982 148.171C13.8616 126.329 29.0241 107.803 48.8167 91.1604C68.6106 74.5172 93.0058 59.7819 118.803 45.511L118.805 45.51C144.602 31.102 171.741 17.2608 198.111 8.93889C224.484 0.615955 250.03 -2.16743 272.67 5.4703L272.673 5.47112C295.315 12.9731 315.066 30.9266 330.021 54.0263C344.973 77.1219 355.104 105.323 358.527 133.249L358.527 133.249C365.372 188.832 345.101 243.005 310.939 271.702C276.505 300.396 228.1 303.701 177.565 305.074L177.562 305.074C152.445 305.898 126.82 306.239 103.227 302.78C79.6368 299.322 58.1219 292.071 41.2007 277.742C24.2733 263.409 11.8302 241.956 5.50361 218.598C-0.822805 195.242 -1.02187 170.023 6.48894 148.174Z" stroke="#00B3BB"/>
<defs>
<filter id="filter0_i_85_65" x="0.303101" y="0.49411" width="360.047" height="305.628" filterUnits="userSpaceOnUse" color-interpolation-filters="sRGB">
<feFlood flood-opacity="0" result="BackgroundImageFix"/>
<feBlend mode="normal" in="SourceGraphic" in2="BackgroundImageFix" result="shape"/>
<feColorMatrix in="SourceAlpha" type="matrix" values="0 0 0 0 0 0 0 0 0 0 0 0 0 0 0 0 0 0 127 0" result="hardAlpha"/>
<feOffset/>
<feGaussianBlur stdDeviation="15"/>
<feComposite in2="hardAlpha" operator="arithmetic" k2="-1" k3="1"/>
<feColorMatrix type="matrix" values="0 0 0 0 0 0 0 0 0 0.701961 0 0 0 0 0.733333 0 0 0 0.5 0"/>
<feBlend mode="normal" in2="shape" result="effect1_innerShadow_85_65"/>
</filter>
<linearGradient id="paint0_linear_85_65" x1="254.045" y1="7.0565" x2="332.597" y2="244.629" gradientUnits="userSpaceOnUse">
<stop stop-color="#00B3BB"/>
<stop offset="1" stop-color="#005155"/>
</linearGradient>
</defs>
</svg>
